# xmcd CD database file
#
# Track frame offsets:
#	150
#	24037
#	38700
#
# Disc length: 831 seconds
#
# Revision: 0
# Processed by: cddbd v1.5.1PL0 Copyright (c) Steve Scherf et al.
# Submitted via: CDex 1.51
#
DISCID=13033d03
DTITLE=中西圭三 - 新しい僕になろう
DYEAR=1995
DGENRE=JPop
TTITLE0=新しい僕になろう
TTITLE1=RAIN SONG
TTITLE2=新しい僕になろう(カラオケ)
EXTD=YEAR: 1995
EXTT0=
EXTT1=
EXTT2=
PLAYORDER=
